<?xml version="1.0" encoding="UTF-8"?>
<svg width="128px" height="122px" viewBox="0 0 128 122" version="1.1" xmlns="http://www.w3.org/2000/svg" xmlns:xlink="http://www.w3.org/1999/xlink">
    <title>icon / logo</title>
    <defs>
        <filter id="filter-1">
            <feColorMatrix in="SourceGraphic" type="matrix" values="0 0 0 0 0.000000 0 0 0 0 0.000000 0 0 0 0 0.000000 0 0 0 1.000000 0"></feColorMatrix>
        </filter>
    </defs>
    <g id="Mainpage" stroke="none" stroke-width="1" fill="none" fill-rule="evenodd">
        <g id="Standardmodule" transform="translate(-42.000000, -34.000000)">
            <g id="icon-/-logo" transform="translate(42.000000, 34.000000)" style="mix-blend-mode: exclusion;">
                <g filter="url(#filter-1)" id="tbs_bow_wappen">
                    <g style="mix-blend-mode: difference;">
                        <path d="M34.734,79.66386 L36.66838,81.10479 C36.20127,78.16213 35.39244,63.88479 36.06008,59.17662 C36.19208,57.99972 36.06008,56.2341 35.19178,55.57962 C35.92549,54.86186 36.32666,53.48687 35.92549,52.89842 C35.6961058,52.6146287 35.3627885,52.4343161 34.9997348,52.3976201 C34.636681,52.360924 34.2740234,52.4708902 33.99249,52.70304 C32.9562903,53.0634222 31.8287697,53.0634222 30.79257,52.70304 C30.12616,52.44185 27.32619,51.39412 26.65844,54.07546 C19.82322,53.3154 21.34859,56.66436 21.60856,57.31346 C21.82503,57.60911 22.24593,57.25806 22.48739,57.29237 L22.49793,57.95475 C24.19493,57.78328 26.93814,57.16051 27.7933,57.94421 C27.7933,59.85765 26.1201,60.4038 23.07719,60.45664 C22.8067855,60.4266367 22.5381207,60.3826175 22.27228,60.32476 C22.1443759,60.7568788 22.2325269,61.2241538 22.5090749,61.579973 C22.785623,61.9357923 23.2166808,62.136555 23.667,62.11927 C21.2388353,62.5202865 18.8651089,63.2003957 16.593,64.14608 C16.0716298,63.3645719 15.4431378,62.6601188 14.72592,62.05334 C14.32609,61.79201 12.99326,61.85795 12.59222,60.41973 C13.39186,59.63319 15.38827,57.4718 13.64386,54.75359 C13.24661,54.13081 12.92071,53.82733 12.56317,53.79828 C12.2229593,53.4070646 11.7625846,53.1397553 11.25417,53.03823 C11.25417,53.03823 11.53793,53.64523 11.76087,54.11501 C11.678828,54.1670575 11.6042762,54.2300627 11.53928,54.30228 C11.3067176,54.185787 11.0566202,54.108234 10.79895,54.07271 C10.12605,53.1543 8.83025,53.54223 8.30246,53.6083 C8.66661,53.86422 9.5599,54.0542 9.98215,54.6533 C9.95934131,54.7688878 9.94828502,54.8864865 9.94915,55.0043 C9.71188433,54.9492853 9.46764928,54.9305592 9.22477,54.94876 C8.40019313,54.474966 7.42215224,54.3451095 6.50251,54.58732 C7.04844645,54.8914269 7.5450012,55.2767283 7.97517,55.73003 C7.76854173,56.1962954 7.7051447,56.7134507 7.79303,57.21582 C7.78889759,57.2154283 7.78474504,57.2163224 7.78114,57.21838 C6.91972654,56.7830293 5.9321454,56.6662038 4.99293,56.88855 C5.42977,56.94125 6.00106,57.65388 6.44981,58.23449 C6.18634965,58.816635 6.24011712,59.4932595 6.59221,60.02649 C7.19269,60.549 9.19301,61.79197 9.25909,62.51249 C9.32638,63.23025 9.19301,63.68682 8.65996,63.94814 C8.12556,64.21203 7.92626,65.19114 8.9925,65.25705 C10.05995,65.38905 12.92599,66.36815 13.65969,68.98354 C13.287399,69.1787563 13.0373193,69.5471343 12.99328,69.96519 C12.99328,70.22652 13.65969,70.68309 14.25882,70.61972 C14.05951,70.94428 14.05951,71.33748 12.65953,71.5988 C11.4254078,71.8133284 10.1782655,71.9446909 8.92653,71.992 C8.4594,71.992 7.99229,71.66474 8.05958,71.20817 C8.12552,70.74902 8.52669,68.92017 7.79299,68.65628 C7.18547365,68.0093366 6.25783898,67.773555 5.41514,68.05189 C4.44795,67.8196 2.99378,67.75097 2.32614,68.46089 C2.89038668,68.5341139 3.44513339,68.6677474 3.98083,68.85949 C3.69712741,69.0424659 3.45192393,69.2791293 3.25901,69.55617 C2.47063757,69.4927817 1.70043694,69.8154095 1.19261,70.42176 C1.84584184,70.5593648 2.46723612,70.8190153 3.02417,71.18708 C2.86552505,71.2704208 2.7222682,71.3802274 2.60057,71.51177 C1.33517,71.80998 0.11597,72.6149 0.05922,73.56222 C0.69915,73.61236 1.38394,73.54385 2.17832,73.61236 C2.23029617,73.7434702 2.29528793,73.8690383 2.37232,73.98718 C1.67773066,74.9180904 1.33086783,76.0627487 1.39189,77.22263 C2.03285043,77.0550136 2.63876662,76.7743905 3.18116,76.39395 C3.85886039,77.2379558 4.84849307,77.7727475 5.92586,77.87717 C7.38681602,77.8997134 8.78991021,77.3068551 9.79206,76.24356 C9.85935,76.89538 8.92649,78.46562 11.19206,78.07241 C13.45906,77.67921 15.85926,78.07241 17.59191,78.00648 C17.9684365,79.3223975 18.4758711,80.5972756 19.10661,81.81201 C19.39835,82.06009 25.27284,86.63365 27.94755,88.41494 C32.34032,91.33909 41.4873,99.49375 41.72619,100.21948 C41.72619,100.21948 36.81226,97.90243 34.92919,97.63327 C33.1342497,97.4402553 31.3213866,97.7605587 29.70126,98.55696 C29.006033,98.796612 28.4481342,99.3247678 28.1707906,100.005836 C27.893447,100.686905 27.9236697,101.454554 28.2537,102.11171 C29.04145,103.79288 31.26094,104.57671 33.0871,104.88276 C34.9331,105.18894 38.33356,104.86964 39.24143,104.14376 C39.54897,103.89568 36.29364,103.66355 35.55468,100.52307 C35.39496,99.8395 30.8545,104.68479 29.27237,102.31761 C28.90282,101.76605 29.45046,100.56261 31.30053,99.59142 C33.434543,98.8075911 35.7941439,98.9150599 37.84807,99.88963 C40.0065939,101.274162 41.8651541,103.077997 43.31356,105.19419 C43.8808315,106.225366 44.3077567,107.327726 44.583,108.472 C45.6936984,107.329013 47.2494263,106.730064 48.83985,106.83313 C50.80598,106.99676 51.29685,108.14474 50.96961,109.94455 C50.6981721,111.173023 50.1981875,112.339511 49.49571,113.38323 C49.49571,113.38323 56.04583,112.56523 55.369,108.50106 C55.13537,107.09706 53.05181,106.02024 51.61616,105.77216 C50.217637,105.439431 48.7597448,105.446659 47.36459,105.79324 C46.13081,106.27358 42.7001,102.52089 42.7001,101.10104 C44.3844028,101.375941 46.0491789,101.759406 47.68402,102.24904 C48.571579,102.620082 49.4360994,103.043992 50.27293,103.51849 C50.27293,103.51849 48.75674,103.29406 48.18666,103.21488 C47.61673,103.13313 44.85351,102.53401 44.85351,102.53401 C44.85351,102.53401 46.13081,105.73001 47.47417,105.22588 C48.59054,104.80633 54.37005,103.83508 55.86773,108.2423 C56.92207,111.34589 51.66373,115.71096 50.98151,116.60289 C50.29792,117.49766 55.14998,114.02722 59.72339,117.05689 C63.07762,119.27889 63.63459,121.09996 63.63459,121.09996 C63.63459,121.09996 64.19669,119.27896 67.55092,117.05689 C72.12448,114.02721 76.97504,117.49765 76.29417,116.60289 C75.61059,115.71096 70.35359,111.34589 71.40659,108.2423 C72.90426,103.83508 78.68377,104.8063 79.80149,105.22588 C81.14215,105.73001 82.41949,102.53401 82.41949,102.53401 C82.41949,102.53401 79.65641,103.13313 79.08769,103.21488 C78.51896,103.29406 77.00143,103.51849 77.00143,103.51849 C77.8387855,103.044108 78.703748,102.620202 79.59169,102.24904 C81.1952082,101.762583 82.828185,101.379134 84.48063,101.10104 C84.48063,102.52089 81.14219,106.27358 79.90976,105.79324 C78.5146068,105.446646 77.0567115,105.439418 75.65819,105.77216 C74.22254,106.02024 72.14033,107.09702 71.90536,108.50106 C71.22975,112.56521 77.78001,113.38323 77.78001,113.38323 C77.076829,112.339734 76.5763586,111.173196 76.30474,109.94455 C75.9775,108.14474 76.46838,106.99676 78.43451,106.83313 C80.0249305,106.730066 81.5806547,107.329015 82.69135,108.472 C83.0244059,107.346645 83.4489272,106.250408 83.96067,105.19425 C85.2969366,103.013372 87.134536,101.18301 89.32067,99.85536 C91.3749321,98.8821649 93.7339696,98.7747249 95.86819,99.55716 C97.71691,100.5284 98.32519,101.94285 97.95445,102.49716 C96.37232,104.86433 91.77363,99.80529 91.6127,100.49143 C90.87508,103.62933 87.81636,103.77716 88.12254,104.02253 C89.03163,104.74827 92.23426,105.15471 94.07892,104.84596 C95.90521,104.54248 98.18537,103.9697 98.97177,102.28867 C99.5396125,100.648871 98.7875233,98.8439143 97.22331,98.0925 C95.7147548,97.5041574 94.0665818,97.3720184 92.48356,97.7125 C90.0378085,98.3607108 87.6433744,99.1890089 85.31987,100.19061 C85.55998,99.46487 97.19561,89.92726 99.28052,88.43607 C102.1848,86.35657 107.4141,82.33984 108.06864,81.80407 C108.81949,81.19454 109.28264,79.24947 109.68115,78.00651 C111.41502,78.07244 113.81652,77.67924 116.08087,78.07244 C118.34779,78.46565 117.41628,76.89544 117.4822,76.24359 C118.484484,77.3066987 119.887494,77.8995203 121.34841,77.8772 C122.425878,77.7731103 123.415632,77.2382529 124.09311,76.39398 C124.635501,76.774424 125.241418,77.0550475 125.88238,77.22266 C125.943397,76.0627809 125.596538,74.9181255 124.90196,73.98721 C124.97845,73.8687534 125.043414,73.7432398 125.09596,73.61239 C125.89034,73.54388 126.57378,73.61239 127.21506,73.56225 C127.15831,72.61493 125.94047,71.81258 124.67371,71.5118 C124.552204,71.3806124 124.409455,71.2708446 124.25146,71.18711 C124.80825,70.8188584 125.429642,70.5591919 126.0829,70.42179 C125.57459,69.8153725 124.804002,69.4927747 124.01527,69.5562 C123.822357,69.2791619 123.577157,69.042499 123.29346,68.85952 C123.829153,68.6677765 124.383896,68.534143 124.94814,68.46092 C124.28051,67.75099 122.82634,67.81962 121.86038,68.05192 C121.017724,67.7734269 120.090037,68.0092335 119.48265,68.65631 C118.74895,68.9202 119.14877,70.74905 119.21472,71.2082 C119.282,71.66477 118.81489,71.99203 118.34778,71.99203 C117.09649,71.9448324 115.849796,71.8134689 114.61615,71.59883 C113.21482,71.33751 113.21482,70.94431 113.0143,70.61975 C113.61599,70.68312 114.28105,70.22655 114.28105,69.96522 C114.237663,69.547306 113.988023,69.1788292 113.61599,68.98357 C114.34834,66.36818 117.2156,65.3891 118.28184,65.25708 C119.34807,65.19114 119.14877,64.21208 118.61572,63.94817 C118.08132,63.68685 117.9493,63.23028 118.01524,62.51252 C118.08132,61.79205 120.08164,60.54908 120.68213,60.02652 C121.035585,59.4927696 121.08939,58.8146612 120.82453,58.23185 C121.27462,57.65394 121.84453,56.94131 122.28262,56.88861 C121.342996,56.6663717 120.35507,56.7831868 119.49319,57.21844 L119.48519,57.21588 C119.569771,56.7132 119.505568,56.1967591 119.30048,55.73009 C119.730101,55.2761758 120.226762,54.8907973 120.77316,54.58738 C119.853067,54.3451729 118.874605,54.47502 118.04953,54.94882 C117.807108,54.930677 117.563336,54.9494032 117.32653,55.00436 C117.327003,54.8864998 117.315504,54.7688963 117.29221,54.65336 C117.71447,54.05423 118.60775,53.86425 118.97203,53.60836 C118.44412,53.54229 117.14831,53.15436 116.47541,54.07277 C116.21774,54.108294 115.967642,54.185847 115.73508,54.30234 C115.668247,54.2307023 115.591918,54.1685549 115.50822,54.11763 C115.73252,53.64782 116.02022,53.03829 116.02022,53.03829 C115.505113,53.1433815 115.038486,53.4139897 114.69144,53.80888 C114.33378,53.83788 114.02773,54.13088 113.63183,54.75365 C111.88607,57.47186 113.88261,59.63325 114.68212,60.41979 C114.28112,61.85801 112.94825,61.79207 112.54843,62.0534 C111.831206,62.6601756 111.202711,63.3646291 110.68134,64.14614 C108.409612,63.2006023 106.036316,62.5204964 103.60859,62.11933 C104.14042,62.0534 106.04459,62.07703 105.37678,60.24819 C105.164612,60.3555246 104.935748,60.4260248 104.69996,60.45668 C102.21524,60.52005 99.48512,60.05293 99.51283,57.79129 C100.7162,57.15529 103.65615,57.81494 103.65615,57.81494 C104.04015,58.17652 103.93585,59.55677 103.80654,59.93417 C103.74854,60.09509 104.87007,59.36936 104.97966,58.33217 C104.995954,58.0220246 104.983568,57.7110371 104.94266,57.40317 C105.019212,57.4061847 105.09549,57.4141311 105.17102,57.42696 C105.396938,57.4847367 105.635546,57.467134 105.85054,57.37683 C106.09728,57.21591 107.44849,53.30214 100.61597,54.07544 C99.94834,51.3941 97.14825,52.44183 96.48182,52.70302 C95.4456648,53.0634018 94.3181852,53.0634018 93.28203,52.70302 C93.0004762,52.4708515 92.6377919,52.3608749 92.2747105,52.3975709 C91.911629,52.4342669 91.5782848,52.6145898 91.34888,52.8984 C90.94904,53.48685 91.34888,54.86184 92.08258,55.5796 C91.21558,56.23412 91.08227,57.99974 91.21558,59.1766 C91.88186,63.88474 92.01523,78.13833 91.54812,81.08099 L93.4825,79.64262 C94.28214,84.02351 87.56436,94.72492 85.15625,97.25316 C82.74934,99.7814 76.56609,102.40206 74.87708,103.09077 C73.5948179,103.635746 72.2838847,104.110629 70.95008,104.51332 C69.54213,104.90652 68.4113,105.08866 68.01283,105.941 C67.41776,107.2183 69.17528,109.11052 70.7601,111.433 C71.4651525,112.435874 72.1034449,113.484059 72.67084,114.57076 C70.85118,112.46476 69.1661,114.91654 68.24511,113.78963 C67.70665,113.13511 68.3678,112.59409 69.21892,112.70763 C69.6060091,112.754738 69.9737343,112.526166 70.1028252,112.158208 C70.2319162,111.790251 70.0875956,111.382037 69.75592,111.17698 C69.4250976,110.903932 68.9986739,110.774801 68.5719493,110.818448 C68.1452248,110.862095 67.7537735,111.074881 67.48508,111.40925 C66.783,112.1666 67.19743,113.1115 67.3782,113.95325 C67.4982,114.51279 66.1378,114.88491 65.86202,114.54711 C65.4434556,113.771978 65.5275581,112.82191 66.07578,112.13236 C66.83718,110.97636 68.09463,106.37651 66.0955,106.89374 C63.23743,107.63529 65.25505,116.13315 64.88822,115.92196 C64.52,115.71347 63.61622,108.19739 63.61622,108.19739 C63.61622,108.19739 62.75322,115.71347 62.38635,115.92196 C62.0195,116.13315 64.03577,107.63529 61.17905,106.89374 C59.17994,106.37651 60.43874,110.97641 61.19878,112.13236 C61.7469917,112.821914 61.8310936,113.771975 61.41254,114.54711 C61.1354,114.88491 59.77636,114.51279 59.89635,113.95325 C60.07714,113.11145 60.49155,112.16655 59.7869,111.40925 C59.5188392,111.07479 59.1277912,110.86187 58.7013954,110.818207 C58.2749996,110.774544 57.8489138,110.903791 57.51863,111.17698 C57.1869544,111.382037 57.0426338,111.790251 57.1717248,112.158208 C57.3008157,112.526166 57.6685409,112.754738 58.05563,112.70763 C58.90676,112.59413 59.5679,113.13515 59.02946,113.78963 C58.10846,114.91654 56.42338,112.46477 54.60384,114.57076 C55.1707158,113.483501 55.8094663,112.435256 56.51584,111.433 C58.09932,109.11054 59.81737,107.2421 59.22217,105.9648 C58.8237,105.11233 57.69287,104.93032 56.28492,104.53712 C54.9511845,104.134221 53.6402625,103.659341 52.35792,103.11457 C50.67026,102.42586 44.58592,99.95829 42.3678,97.26371 C40.16127,94.58509 33.93829,84.0315 34.734,79.66386 Z M29.04409,55.79861 L28.2485,55.08085 L30.17762,55.08085 L29.04409,55.79861 Z M98.21026,55.79861 L97.07687,55.08085 L99.006,55.08085 L98.21026,55.79861 Z" id="Shape" fill="#010000" fill-rule="nonzero"></path>
                        <path d="M65.16641,19.41376 C68.45213,22.51207 65.22452,27.01956 64.47107,28.95665 C66.17724,26.68176 68.17229,24.71565 69.68456,24.66549 C69.68456,24.66549 72.80395,23.98462 70.15829,26.39679 C68.77804,27.57639 69.39829,27.83501 70.51854,28.18079 C71.55436,28.35225 74.51675,28.88545 74.51675,28.88545 C74.51675,28.88545 71.75875,29.38688 70.41691,29.62969 C69.15151,29.90412 67.37805,30.29732 64.95007,30.85415 C82.0539,32.85715 91.09792,45.45609 89.45783,48.75762 C90.57419,49.26432 91.98083,48.02135 92.57844,47.30872 C90.34057,53.61088 99.46918,52.32561 101.02617,48.71272 C99.27379,49.7499 96.24684,47.30341 97.45548,45.72264 C96.24684,46.43256 96.71123,48.42248 96.01455,48.44883 C92.56263,46.71753 89.68348,40.01961 93.41767,39.91665 C94.63429,39.91935 98.36067,40.11203 96.78258,41.26001 C95.20449,42.40799 93.54578,42.55839 93.54578,45.08406 C104.02017,41.67173 101.93001,37.66027 96.80365,37.43327 C95.57919,34.92881 100.4099,37.18527 100.7135,36.46485 C98.89115,36.64957 95.80741,33.80985 94.65943,35.03974 C93.42037,36.36717 95.75593,37.42274 95.75593,37.42274 C92.57844,37.42274 90.69945,39.77681 90.85254,40.96181 C83.36024,38.61031 82.00243,35.73373 76.42736,29.12823 C76.42736,29.12823 78.88436,28.55545 79.24853,29.76423 C80.80038,34.94475 85.1864,36.98468 90.34327,36.29596 C91.93459,36.08477 92.21564,33.84947 91.97418,30.95708 C91.74718,28.24142 90.42772,26.84008 89.54363,27.21222 C88.14756,27.80067 87.7318,32.05494 88.6621,31.84122 C89.6174,31.61947 90.4131,30.81727 90.20599,30.29733 C89.6174,28.83006 89.91035,26.99323 90.93969,29.04909 C92.34103,31.85432 86.38469,38.45209 87.54452,28.36295 C86.8067857,29.745366 86.3151827,31.2455908 86.0917,32.79652 C81.31492,31.00452 81.12751,28.95667 81.12751,28.95667 C84.28651,29.03057 85.99401,26.34667 85.15221,24.52567 C84.56363,26.98267 81.30438,26.76367 81.30438,26.76367 C81.3783,25.71594 87.0312,23.31702 81.21723,24.21167 C81.9765352,23.1117964 83.4445562,22.764181 84.61646,23.40676 C81.61976,19.69621 79.57308,23.3777 79.57308,23.3777 C79.57308,21.92881 75.24247,27.21229 73.65102,27.21229 C72.2682,27.21229 75.92336,24.05329 75.4126,22.8156 C74.9244,21.6333 71.18088,23.77888 70.52379,23.14543 C69.52755,22.18486 73.85951,18.42943 73.85951,18.42943 C73.00717,18.02298 72.07295,18.55076 71.19804,18.81736 C69.35204,19.37419 71.20467,15.77985 68.6844,19.42959 C67.15889,17.50574 67.77125,11.19575 68.82683,10.01344 C66.97683,9.83927 65.6046,14.12244 66.31574,17.22077 C64.61889,16.67977 64.25731,9.67564 64.25731,9.67564 L63.63711,0.04164 L63.01961,9.67564 C63.01961,9.67564 62.65802,16.67975 60.95848,17.22077 C61.6657,14.12246 60.29868,9.83927 58.44605,10.01344 C59.50431,11.19575 60.11654,17.50574 58.5886,19.42959 C55.92699,15.77985 57.84694,19.30298 55.94415,18.77777 C55.10762,18.54549 54.22353,18.04406 53.4147,18.42943 C53.4147,18.42943 57.7467,22.18483 56.74907,23.14543 C56.09198,23.77888 52.34981,21.6333 51.86162,22.8156 C51.35087,24.05331 55.00462,27.21229 53.62184,27.21229 C52.12551,27.21229 47.70113,21.94205 47.70113,23.3777 C47.70113,23.3777 45.65446,19.69621 42.65775,23.40676 C43.8291878,22.7639179 45.2970552,23.111635 46.05563,24.21167 C40.24301,23.31704 45.89592,25.71596 45.96984,26.76367 C45.96984,26.76367 42.70923,26.98267 42.12078,24.52567 C41.2802,26.34667 42.98908,29.03059 46.14792,28.95667 C46.14792,28.95667 45.95792,31.00455 41.18252,32.79652 C40.9590298,31.2455912 40.4674236,29.7453671 39.72969,28.36295 C40.88835,38.45212 34.93197,31.85432 36.33587,29.04909 C37.36252,26.99323 37.65681,28.83009 37.06957,30.29733 C36.86108,30.81727 37.65681,31.61947 38.61076,31.84122 C39.54241,32.05498 39.12543,27.80071 37.72937,27.21222 C36.84785,26.8401 35.52569,28.24142 35.29868,30.95708 C35.05858,33.84947 35.33963,36.08477 36.93108,36.29596 C42.08783,36.98468 46.41721,34.94475 47.96894,29.76423 C48.33052,28.55545 50.78877,29.12823 50.78877,29.12823 C45.21369,35.73373 43.91397,38.61031 36.42032,40.96181 C36.57476,39.77681 34.69443,37.42274 31.51693,37.42274 C31.51693,37.42274 33.96599,36.25097 32.61479,35.03974 C31.4087,33.96026 28.85412,36.64957 27.03052,36.46485 C27.33402,37.18532 31.69637,34.92885 30.47052,37.43327 C25.34418,37.66027 23.254,41.67173 33.72841,45.08406 C33.72841,42.55839 32.18195,42.60067 30.4916,41.26006 C28.8026,39.9194 32.42206,39.9194 33.8565,39.9167 C37.59204,39.91143 35.65239,46.71758 32.2005,48.44888 C31.17777,48.41188 31.49719,46.74663 29.91628,45.72269 C31.03128,47.21118 27.95151,49.72091 26.37072,48.69953 C27.77206,52.32562 37.01146,53.61089 34.69442,47.30873 C35.29342,48.02136 36.70014,49.26433 37.81637,48.75763 C36.175,45.45608 45.219,32.85716 62.32549,30.85414 C59.89749,30.29731 58.12149,29.90414 56.8573,29.62968 C55.51407,29.38687 52.75882,28.88544 52.75882,28.88544 C52.75882,28.88544 55.71982,28.35224 56.75447,28.18078 C57.87597,27.83501 58.49618,27.57639 57.11593,26.39678 C54.47027,23.98461 57.58965,24.66548 57.58965,24.66548 C59.10057,24.71561 61.09833,26.68175 62.80316,28.95664 C62.05106,27.01955 58.82344,22.51206 62.10903,19.41375 C62.00093,20.2873 63.62913,27.39693 63.62913,27.39693 C63.62913,27.39693 65.27206,20.28731 65.16641,19.41376 Z" id="Rahmen-oben" fill="#010000" fill-rule="nonzero"></path>
                        <path d="M42.73009,44.31747 L65.35845,44.31747 C70.90263,44.31747 75.0728467,45.3046867 77.8691,47.27912 C80.66502,49.25408 82.06315,52.2038267 82.06349,56.12836 C82.147202,58.869662 81.1723254,61.5379674 79.34113,63.57965 C77.1494399,65.7913688 74.3625228,67.3188827 71.31906,67.97656 C75.63672,68.0501 78.99755,69.1538567 81.40155,71.28783 C83.8597579,73.5466917 85.1819417,76.7845389 85.00755,80.11843 C85.00755,84.8778967 83.3763433,88.5267067 80.11393,91.06486 C76.8508233,93.6038733 72.1533267,94.87337 66.02144,94.87337 L42.73009,94.87337 L42.73009,91.23061 L47.18242,90.82608 L48.3965,89.64722 L48.3965,49.43278 L47.18242,48.36478 L42.73009,47.997 L42.73009,44.31747 Z M58.22109,66.76195 C58.41687,66.7868233 58.6620333,66.8052967 58.95658,66.81737 C59.25078,66.82981 59.6803367,66.83602 60.24525,66.83602 C64.16925,66.83602 67.05736,66.0449333 68.90958,64.46276 C70.76178,62.8804067 71.68788,60.4089033 71.68788,57.04825 C71.68788,54.1047233 70.82946,51.92155 69.11262,50.49873 C67.39508,49.0764167 64.7580033,48.3650833 61.20139,48.36473 C60.6119567,48.36473 59.6799867,48.41376 58.40548,48.51182 L58.1838,48.51182 L58.22109,66.76195 Z M58.1838,90.60543 L58.44174,90.64221 C59.9624533,90.7157567 61.0905567,90.75253 61.82605,90.75253 C66.2421233,90.75253 69.4558533,89.94763 71.46724,88.33783 C73.4779067,86.72803 74.48377,84.1413633 74.48483,80.57783 C74.48483,77.35823 73.5400833,74.9561333 71.65059,73.37154 C69.7611033,71.7866 66.9282433,70.99396 63.15201,70.99362 C62.04773,70.99362 61.1278433,71.0058767 60.39235,71.03039 C59.6558167,71.05525 58.9196333,71.0920233 58.1838,71.14071 L58.1838,90.60543 Z" id="Shape" fill="#1D1D1B" fill-rule="nonzero"></path>
                    </g>
                </g>
            </g>
        </g>
    </g>
</svg>