<?xml version="1.0" standalone="no"?>
<!DOCTYPE svg PUBLIC "-//W3C//DTD SVG 20010904//EN"
 "http://www.w3.org/TR/2001/REC-SVG-20010904/DTD/svg10.dtd">
<svg version="1.0" xmlns="http://www.w3.org/2000/svg"
 width="260.000000pt" height="260.000000pt" viewBox="0 0 260.000000 260.000000"
 preserveAspectRatio="xMidYMid meet">
<metadata>
Created by potrace 1.11, written by Peter Selinger 2001-2013
</metadata>
<g transform="translate(0.000000,260.000000) scale(0.100000,-0.100000)"
fill="#000000" stroke="none">
<path d="M0 1300 l0 -1300 378 0 377 1 -33 28 c-20 17 -39 48 -51 82 l-18 54
-109 1 c-104 1 -109 2 -112 22 -4 26 1 26 -47 2 -49 -25 -61 -25 -109 0 -30
15 -43 17 -59 9 -18 -10 -19 -8 -14 23 3 18 8 43 12 56 7 20 4 22 -25 22 -41
0 -36 18 13 46 28 16 34 23 25 32 -7 7 -18 12 -26 12 -19 0 -4 20 16 20 9 0
26 7 36 15 19 14 18 15 -5 24 -19 8 -11 10 41 10 39 1 71 -4 78 -11 7 -7 12
-31 12 -54 0 -52 12 -58 94 -44 70 11 99 30 67 42 -18 6 -19 11 -10 32 10 20
8 30 -11 55 -22 32 -86 71 -115 71 -19 0 -20 24 0 40 25 21 17 47 -26 83 -22
20 -41 45 -42 58 -2 13 -8 34 -15 47 -13 23 -13 23 22 16 33 -6 36 -4 36 17 0
12 -8 31 -17 42 -20 22 -21 22 55 1 26 -8 30 11 5 25 -31 17 -6 23 26 6 28
-14 35 -13 32 8 -2 15 17 6 41 -18 43 -43 45 -101 6 -158 -22 -30 -18 -54 9
-64 10 -3 34 -21 53 -39 l35 -33 88 28 c83 26 114 41 89 41 -7 0 -12 8 -12 19
0 15 9 19 55 23 61 5 98 30 93 62 -3 19 -9 21 -75 18 -44 -1 -73 2 -73 8 0 5
-6 9 -12 8 -8 -2 -14 10 -16 29 -4 42 26 63 91 63 41 0 53 4 70 26 18 24 24
26 66 19 46 -8 103 -9 151 -3 23 3 25 0 23 -32 -6 -78 5 -619 15 -722 l7 -87
-23 15 c-13 9 -26 13 -29 10 -3 -2 -2 -28 2 -55 l7 -51 179 0 180 0 -3 478
c-3 431 -5 480 -20 509 -23 41 -53 62 -100 70 -37 5 -38 7 -38 45 l0 40 388
-5 c422 -5 475 -11 598 -67 106 -48 164 -121 185 -235 33 -177 -85 -319 -309
-373 -74 -18 -94 -32 -44 -32 53 0 182 -39 253 -76 80 -42 150 -114 172 -177
14 -38 15 8 16 519 l1 562 -79 73 c-122 115 -270 192 -433 228 l-83 18 100 22
c164 36 157 32 90 48 -33 8 -64 18 -69 23 -5 5 3 23 18 43 33 43 33 47 -4 47
-42 0 -82 -23 -120 -67 l-31 -38 21 49 c30 71 35 124 17 169 -9 20 -20 37 -25
37 -5 0 -16 -45 -26 -101 -10 -56 -21 -97 -26 -93 -4 5 -13 38 -19 74 -6 36
-14 78 -18 95 l-5 29 -19 -23 c-25 -31 -25 -105 0 -172 l20 -50 -49 45 c-39
37 -56 46 -85 46 -42 0 -44 -12 -10 -52 14 -16 23 -33 20 -38 -3 -4 -35 -13
-72 -20 -78 -15 -78 -15 82 -51 55 -12 96 -23 90 -24 -5 -2 -43 -11 -84 -20
-165 -38 -328 -129 -446 -249 -77 -78 -136 -178 -138 -232 -1 -39 -16 -43 -56
-15 l-26 19 3 -39 c5 -47 -15 -75 -58 -84 -39 -9 -103 10 -140 42 l-31 26 40
18 c22 9 46 30 54 45 l15 28 16 -32 c9 -18 22 -32 29 -32 37 0 106 116 107
178 0 47 -15 70 -53 77 -38 7 -109 -6 -114 -22 -2 -6 19 -27 47 -47 31 -23 50
-43 50 -56 0 -27 -9 -25 -86 12 -135 66 -153 152 -38 176 29 6 39 13 39 27 0
16 -6 20 -30 18 l-30 -2 35 19 c19 11 47 19 63 20 22 0 27 -4 27 -25 0 -13 -8
-28 -17 -34 -17 -9 -17 -10 2 -16 67 -20 92 -42 122 -103 5 -11 156 72 195
107 37 33 129 142 201 239 7 9 1 12 -26 12 -34 0 -37 -3 -67 -64 -18 -38 -46
-78 -68 -96 -68 -57 -197 -78 -243 -41 -22 18 -24 27 -24 103 1 93 21 148 55
148 25 0 39 -26 42 -80 3 -47 -10 -60 -35 -36 -11 11 -14 28 -10 58 l4 43 -20
-24 c-27 -30 -26 -46 2 -101 39 -79 86 -63 88 29 1 56 1 56 14 26 8 -16 14
-40 15 -52 0 -27 10 -28 53 -7 37 19 75 51 88 76 8 14 3 19 -31 28 -42 11 -80
55 -80 94 0 17 2 16 18 -3 16 -21 92 -47 92 -32 0 4 -14 20 -30 36 -38 37 -38
49 1 41 41 -8 34 15 -9 30 -25 8 -29 13 -20 22 20 20 76 15 90 -8 7 -11 19
-20 26 -20 7 0 34 -19 60 -43 107 -99 141 -103 82 -10 -50 78 -42 83 78 58 28
-7 32 -5 32 13 0 12 -20 46 -45 77 -46 56 -46 63 1 45 21 -8 31 -7 44 5 16 14
19 14 33 -7 14 -20 18 -21 26 -8 18 26 23 115 12 186 -6 37 -8 70 -6 72 11 11
45 -68 50 -117 10 -86 11 -89 29 -48 9 21 21 84 27 140 23 246 23 248 26 192
12 -221 30 -333 58 -364 11 -11 13 -3 14 48 0 38 7 77 20 106 23 53 44 62 30
13 -12 -45 -11 -180 2 -215 l11 -28 18 23 c21 26 30 28 30 7 0 -18 7 -18 49
-4 18 6 35 9 38 6 3 -4 -15 -29 -41 -58 -25 -28 -46 -60 -46 -71 0 -17 5 -19
33 -14 105 20 107 20 107 0 0 -11 -13 -39 -29 -63 -28 -42 -31 -61 -11 -61 5
0 41 27 79 60 39 33 74 60 79 60 5 0 17 9 27 20 21 24 63 26 91 5 18 -14 18
-14 -4 -15 -28 0 -62 -17 -62 -31 0 -6 14 -7 35 -3 19 3 35 3 35 -1 0 -4 -17
-23 -37 -40 -21 -18 -35 -36 -32 -39 11 -11 79 15 94 37 l15 21 0 -25 c0 -36
-33 -75 -75 -89 -19 -6 -35 -15 -35 -19 0 -31 119 -115 137 -97 4 4 9 248 11
542 l3 534 -1301 0 -1300 0 0 -1300z"/>
<path d="M2370 1551 c91 -118 132 -162 184 -199 l46 -33 0 48 0 49 -45 12
c-53 14 -112 69 -138 127 -30 67 -33 70 -72 73 l-37 3 62 -80z"/>
<path d="M1838 1023 c-16 -18 -18 -46 -18 -281 l0 -262 68 0 c148 0 239 56
262 163 7 31 11 95 8 149 -3 85 -7 101 -34 144 -41 68 -96 96 -193 102 -66 4
-78 2 -93 -15z"/>
<path d="M963 839 c14 -8 22 -8 30 0 8 8 3 11 -18 11 -26 -1 -28 -2 -12 -11z"/>
<path d="M1828 374 c-5 -4 -8 -90 -8 -191 l0 -183 210 0 210 0 0 50 c0 152
-55 252 -164 300 -50 23 -233 41 -248 24z"/>
</g>
</svg>
